<?xml version="1.0" standalone="no"?>
<!DOCTYPE svg PUBLIC "-//W3C//DTD SVG 20010904//EN"
 "http://www.w3.org/TR/2001/REC-SVG-20010904/DTD/svg10.dtd">
<svg version="1.0" xmlns="http://www.w3.org/2000/svg"
 width="1494.000000pt" height="1494.000000pt" viewBox="0 0 1494.000000 1494.000000"
 preserveAspectRatio="xMidYMid meet">
<metadata>
Created by potrace 1.11, written by Peter Selinger 2001-2013
</metadata>
<g transform="translate(0.000000,1494.000000) scale(0.100000,-0.100000)"
fill="#000000" stroke="none">
<path d="M7348 14885 c-2 -2 -84 -6 -183 -9 -99 -4 -200 -9 -225 -11 -25 -3
-98 -9 -164 -15 -65 -6 -133 -13 -150 -15 -17 -2 -85 -11 -151 -20 -1342 -176
-2658 -751 -3722 -1627 -206 -170 -216 -179 -440 -400 -274 -271 -396 -400
-518 -548 -20 -25 -44 -54 -53 -65 -76 -92 -110 -135 -189 -240 -786 -1048
-1269 -2239 -1438 -3545 -9 -69 -18 -152 -21 -185 -2 -33 -6 -69 -9 -80 -26
-123 -27 -1148 -1 -1305 3 -14 7 -54 10 -90 4 -36 11 -101 16 -145 6 -44 13
-98 16 -120 2 -22 7 -51 9 -65 2 -14 7 -43 10 -65 22 -155 85 -466 135 -666
258 -1028 733 -1987 1392 -2817 198 -249 329 -392 659 -719 161 -158 227 -219
338 -311 24 -21 49 -42 55 -47 30 -28 264 -210 361 -281 175 -129 476 -326
634 -417 668 -383 1275 -630 1967 -801 348 -86 742 -154 1049 -181 39 -3 84
-8 100 -10 17 -2 86 -7 155 -10 69 -4 143 -9 165 -10 57 -5 545 -5 640 -1 144
8 289 17 315 21 14 2 57 6 95 10 39 3 86 8 105 10 56 7 273 36 300 40 670 107
1301 296 1930 577 69 31 407 200 475 238 224 124 436 254 635 388 206 140 582
432 720 558 19 18 46 42 60 54 34 29 355 347 465 462 310 320 635 750 917
1211 43 71 78 130 78 132 0 2 14 27 30 55 112 191 292 557 397 810 166 401
323 901 399 1275 86 422 128 729 149 1075 3 52 8 127 10 165 6 92 6 562 1 645
-3 36 -8 115 -11 175 -4 61 -8 126 -10 145 -3 19 -9 85 -15 145 -62 644 -254
1403 -514 2032 -164 397 -398 847 -601 1159 -41 63 -75 117 -75 120 0 3 -5 10
-10 17 -6 7 -56 77 -112 157 -154 219 -342 458 -512 650 -102 115 -523 535
-642 640 -90 79 -107 94 -214 181 -1043 847 -2282 1395 -3598 1590 -180 26
-182 27 -292 38 -101 11 -181 18 -270 25 -122 10 -646 26 -652 21z"/>
</g>
</svg>
